<?xml version="1.0" encoding="UTF-8" standalone="no"?>
<!DOCTYPE svg PUBLIC "-//W3C//DTD SVG 1.1//EN" "http://www.w3.org/Graphics/SVG/1.1/DTD/svg11.dtd">
<svg width="100%" height="100%" viewBox="0 0 2819 364" version="1.1" xmlns="http://www.w3.org/2000/svg" xmlns:xlink="http://www.w3.org/1999/xlink" xml:space="preserve" style="fill-rule:evenodd;clip-rule:evenodd;stroke-linejoin:round;stroke-miterlimit:1.41421;">
    <g transform="matrix(1,0,0,1,-90,-80)">
        <path d="M330.56,263.5L299.73,316.91L262.86,253.06L182.78,240.71L299.73,443.27L397.55,273.82L330.56,263.5Z" style="fill:white;fill-rule:nonzero;"/>
        <path d="M235.25,205.24L199.42,143.18L400.03,143.18L376.8,183.41L456.88,171.06L509.45,80L90,80L168.26,215.57L235.25,205.24Z" style="fill:white;fill-rule:nonzero;"/>
        <path d="M646.32,345.72L741.23,345.72L741.23,359.45L630,359.45L630,167.26L646.36,167.26L646.32,345.72Z" style="fill:white;fill-rule:nonzero;"/>
        <path d="M846.24,359.45L830,359.45L830,167.26L846.23,167.26L846.24,359.45Z" style="fill:white;fill-rule:nonzero;"/>
        <path d="M1091.16,336.61C1085.53,344.61 1076.71,350.857 1064.7,355.35C1052.69,359.843 1039.25,362.087 1024.37,362.08C1009.32,362.08 995.947,358.473 984.24,351.26C972.533,344.047 963.47,333.84 957.05,320.64C950.623,307.44 947.367,292.303 947.28,275.23L947.28,250.95C947.28,224.283 954.013,203.23 967.48,187.79C980.947,172.35 999.03,164.627 1021.73,164.62C1041.52,164.62 1057.45,169.657 1069.51,179.73C1081.57,189.803 1088.73,203.687 1091,221.38L1074.76,221.38C1072.39,207.26 1066.64,196.557 1057.53,189.27C1048.42,181.983 1036.52,178.343 1021.83,178.35C1003.88,178.35 989.67,184.733 979.19,197.5C968.71,210.267 963.473,228.267 963.48,251.5L963.48,274.22C963.48,288.84 965.967,301.763 970.94,312.99C975.913,324.217 983.04,332.913 992.32,339.08C1001.6,345.247 1012.27,348.33 1024.32,348.33C1038.32,348.33 1050.32,346.13 1060.32,341.73C1066.83,338.823 1071.67,335.437 1074.84,331.57L1074.84,282L1023.23,282L1023.23,268.24L1091.08,268.24L1091.16,336.61Z" style="fill:white;fill-rule:nonzero;"/>
        <path d="M1333.71,359.45L1317.34,359.45L1317.34,278.11L1207.53,278.11L1207.53,359.44L1191.3,359.44L1191.3,167.26L1207.53,167.26L1207.53,264.38L1317.34,264.38L1317.34,167.26L1333.71,167.26L1333.71,359.45Z" style="fill:white;fill-rule:nonzero;"/>
        <path d="M1563.2,181L1497.33,181L1497.33,359.45L1481.1,359.45L1481.1,181L1415.37,181L1415.37,167.26L1563.2,167.26L1563.2,181Z" style="fill:white;fill-rule:nonzero;"/>
        <path d="M1990.75,181L1924.88,181L1924.88,359.45L1908.65,359.45L1908.65,181L1842.92,181L1842.92,167.26L1990.75,167.26L1990.75,181Z" style="fill:white;fill-rule:nonzero;"/>
        <path d="M2147.65,279.33L2091.81,279.33L2091.81,359.45L2075.45,359.45L2075.45,167.26L2137.88,167.26C2158.38,167.26 2174.38,172.227 2185.88,182.16C2197.38,192.093 2203.14,205.98 2203.17,223.82C2203.35,235.584 2199.53,247.067 2192.34,256.38C2185.13,265.787 2175.46,272.29 2163.34,275.89L2211.34,357.72L2211.34,359.44L2194.05,359.44L2147.65,279.33ZM2091.81,265.6L2141.57,265.6C2155.2,265.6 2166.16,261.723 2174.43,253.97C2182.7,246.217 2186.84,236.17 2186.84,223.83C2186.84,210.257 2182.53,199.727 2173.91,192.24C2165.29,184.753 2153.19,181.007 2137.61,181L2091.81,181L2091.81,265.6Z" style="fill:white;fill-rule:nonzero;"/>
        <path d="M2407.62,278.11L2317.74,278.11L2317.74,345.72L2421.09,345.72L2421.09,359.45L2301.5,359.45L2301.5,167.26L2420.42,167.26L2420.42,181L2317.73,181L2317.73,264.39L2407.61,264.39L2407.62,278.11Z" style="fill:white;fill-rule:nonzero;"/>
        <path d="M2892.79,183.67L2816.23,326.97L2724.06,154.45L2724.06,359.75L2739.67,359.75L2739.67,218.3L2816.26,359.42L2892.79,218.32L2892.79,359.75L2908.4,359.75L2908.4,189.54L2908.4,154.45L2892.79,183.67Z" style="fill:white;fill-rule:nonzero;"/>
        <path d="M2649.77,359.45L2569.47,154.54L2569.47,154.53L2569.46,154.53L2569.46,154.54L2489.16,359.45L2506.19,359.45L2569.46,194.32L2632.74,359.45L2649.77,359.45Z" style="fill:white;fill-rule:nonzero;"/>
        <path d="M1764.57,287C1760.08,279.96 1753.4,273.91 1744.51,268.85C1737.64,265.16 1730.45,262.088 1723.04,259.67L1715.4,273.16C1728.5,277.567 1737.94,282.157 1743.72,286.93C1751.2,293.13 1754.94,301.557 1754.94,312.21C1754.94,323.123 1750.41,331.877 1741.34,338.47C1732.27,345.063 1720.27,348.363 1705.34,348.37C1693.99,348.37 1684.29,346.43 1675.99,342.86L1668.99,355.19C1680.52,359.876 1692.87,362.225 1705.32,362.1C1725.12,362.1 1741.07,357.523 1753.17,348.37C1765.27,339.217 1771.32,327.073 1771.32,311.94C1771.31,302.347 1769.06,294.033 1764.57,287Z" style="fill:white;fill-rule:nonzero;"/>
        <path d="M1659.11,250.93C1666.39,256.18 1677.11,261.11 1691.24,265.72L1698.96,252.34C1684.96,248.067 1674.53,243.237 1667.67,237.85C1659.86,231.69 1655.97,223.74 1656,214C1656,203.447 1660.33,194.893 1669,188.34C1677.67,181.787 1689.33,178.51 1704,178.51C1717.12,178.51 1727.78,181.7 1736.26,187.72L1743.49,175.21C1741.78,174.21 1740.06,173.11 1738.19,172.21C1728.13,167.29 1716.74,164.83 1704.01,164.83C1685.22,164.83 1669.78,169.417 1657.7,178.59C1645.62,187.763 1639.58,199.687 1639.59,214.36C1639.61,229.453 1646.12,241.643 1659.11,250.93Z" style="fill:white;fill-rule:nonzero;"/>
        <path d="M1744.34,268.78C1737.41,265.019 1730.16,261.899 1722.66,259.46L1714.87,272.95C1728.15,277.39 1737.74,282.01 1743.55,286.83C1751.02,293.023 1754.75,301.433 1754.75,312.06C1754.75,322.947 1750.23,331.683 1741.18,338.27C1732.13,344.857 1720.13,348.15 1705.18,348.15C1693.38,348.15 1683.33,346.15 1674.84,342.24L1667.76,354.5L1667.96,354.6C1679.74,359.53 1692.41,361.997 1705.18,361.85C1724.94,361.85 1740.86,357.283 1752.93,348.15C1765,339.017 1771.04,326.897 1771.04,311.79C1771.04,302.217 1768.8,293.917 1764.32,286.89C1759.84,279.863 1753.18,273.827 1744.34,268.78Z" style="fill:white;fill-rule:nonzero;"/>
    </g>
</svg>
